<svg width="24" height="24" viewBox="0 0 24 24" fill="none" xmlns="http://www.w3.org/2000/svg">
<mask id="mask0_102_2" style="mask-type:alpha" maskUnits="userSpaceOnUse" x="0" y="0" width="24" height="24">
<path d="M24 0H0V24H24V0Z" fill="white"/>
</mask>
<g mask="url(#mask0_102_2)">
<path d="M3.89001 15.6695L6.25001 0.459526C6.29001 0.229526 6.47001 0.0495265 6.70001 0.00952646C6.93001 -0.0304735 7.16001 0.0795265 7.27001 0.289526L9.81001 5.05953L3.89001 15.6695ZM14.3 7.1447L3.53001 17.9847L11.52 3.6647C11.61 3.4847 11.8 3.3747 12 3.3747C12.2 3.3747 12.39 3.4847 12.48 3.6647L14.3 7.1447ZM20.686 19.3672L12.756 23.7872C12.266 24.0672 11.666 24.0672 11.176 23.7872L3.31601 19.3672L17.516 5.06716C17.656 4.92716 17.876 4.86716 18.066 4.93716C18.256 4.99716 18.406 5.16716 18.436 5.36716L20.686 19.3672Z" fill="url(#paint0_linear_102_2)"/>
</g>
<defs>
<linearGradient id="paint0_linear_102_2" x1="12.001" y1="0.00140381" x2="12.001" y2="23.9972" gradientUnits="userSpaceOnUse">
<stop stop-color="#D800EB"/>
<stop offset="1"/>
</linearGradient>
</defs>
</svg>
